/* XPM */
static char *ctdRigUiIcon[] = {
/* columns rows colors chars-per-pixel */
"30 30 256 2",
"   c #1D1D1D",
".  c #1B1916",
"X  c #261E16",
"o  c #202013",
"O  c #222222",
"+  c #2D2D2D",
"@  c #312C27",
"#  c #313227",
"$  c #3B332B",
"%  c #353535",
"&  c #3C3B35",
"*  c #3C3C3C",
"=  c #3C3732",
"-  c #403628",
";  c #473F3A",
":  c #474600",
">  c #444413",
",  c #5A5814",
"<  c #636201",
"1  c #7A791B",
"2  c #4A4920",
"3  c #575723",
"4  c #56493B",
"5  c #636228",
"6  c #4A4A4A",
"7  c #5E4F42",
"8  c #595047",
"9  c #555555",
"0  c #5D5C55",
"q  c #5C5B5B",
"w  c #645445",
"e  c #675A4D",
"r  c #6A5C4D",
"t  c #6C5845",
"y  c #725F4C",
"u  c #76624C",
"i  c #6A6057",
"p  c #61615F",
"a  c #6B655F",
"s  c #7A6652",
"d  c #7E6955",
"f  c #7A6B5B",
"g  c #756758",
"h  c #6A6A46",
"j  c #646464",
"k  c #716B65",
"l  c gray49",
"z  c #807F4B",
"x  c #816B53",
"c  c #826E5A",
"v  c #86715D",
"b  c #89735B",
"n  c #937B5F",
"m  c #827364",
"M  c #8A7663",
"N  c #8D7965",
"B  c #8C7B6B",
"V  c #83786E",
"C  c #927B64",
"Z  c #997F64",
"A  c #867B70",
"S  c #887F77",
"D  c #847E7A",
"F  c #8B8A0F",
"G  c #8F8D18",
"H  c #848213",
"J  c #94941C",
"K  c #9F9D18",
"L  c #9C9B14",
"P  c #999909",
"I  c #A09F1D",
"U  c #AEAC0E",
"Y  c #A3A307",
"T  c #B0AF08",
"R  c #B4B007",
"E  c #B5B20F",
"W  c #ADAB18",
"Q  c #A9A713",
"!  c #B8B612",
"~  c #BFBE14",
"^  c #83812C",
"/  c #9A9A28",
"(  c #9A983C",
")  c #A19F21",
"_  c #ADAB28",
"`  c #BAB722",
"'  c #BDBA23",
"]  c #B3B122",
"[  c #ACAA38",
"{  c #B2B039",
"}  c #C1BF37",
"|  c #CFCC0D",
" . c #D0CD0E",
".. c #D5D20B",
"X. c #DAD70E",
"o. c #DCD90F",
"O. c #C5C21B",
"+. c #CDCC1B",
"@. c #DFDD12",
"#. c #D3D11C",
"$. c #D8D518",
"%. c #D2D014",
"&. c #E5E10B",
"*. c #E9E609",
"=. c #F8F60F",
"-. c #FCFA09",
";. c #E4E51C",
":. c #FFFE1A",
">. c #FBFA15",
",. c #C4C226",
"<. c #C5C42D",
"1. c #CDCB24",
"2. c #D5D224",
"3. c #DDDB20",
"4. c #C9C838",
"5. c #C6C338",
"6. c #D0CE3A",
"7. c #E5E323",
"8. c #E8E625",
"9. c #F5F420",
"0. c #FAFA23",
"q. c #E3E13D",
"w. c #F3F338",
"e. c #9A9947",
"r. c #9C9B49",
"t. c #838251",
"y. c #ADAB4D",
"u. c #B3B24C",
"i. c #BEBC43",
"p. c #AEAE57",
"a. c #B7B65F",
"s. c #9B846D",
"d. c #95946E",
"f. c #87837E",
"g. c #9A8877",
"h. c #91887E",
"j. c #9D8D7C",
"k. c #A68A6D",
"l. c #A68C72",
"z. c #A08C79",
"x. c #AE9477",
"c. c #AD937A",
"v. c #A7A660",
"b. c #A8A665",
"n. c #B9B86A",
"m. c #B5B465",
"M. c #B8B777",
"N. c #C0BF79",
"B. c #CCCA49",
"V. c #D1CF57",
"C. c #DAD85C",
"Z. c #E5E44F",
"A. c #C8C664",
"S. c #CFCD63",
"D. c #C3C26A",
"F. c #C8C77C",
"G. c #CECC7D",
"H. c #C3C278",
"J. c #D4D37F",
"K. c #D5D565",
"L. c #E6E574",
"P. c #848484",
"I. c #8C8C8C",
"U. c #908A80",
"Y. c #988F87",
"T. c #9C968E",
"R. c #8F8F9F",
"E. c #929292",
"W. c #949798",
"Q. c #979899",
"!. c #A19386",
"~. c #A59A8E",
"^. c #AD9E8D",
"/. c #B79D83",
"(. c #A39C94",
"). c #A99E93",
"_. c #AAA980",
"`. c #BBA187",
"'. c #BBA38B",
"]. c #BBBA8F",
"[. c #BCBA81",
"{. c #ACA49B",
"}. c #B0A79D",
"|. c #B5A89B",
" X c #BBBA90",
".X c #ADA7A1",
"XX c #ABABAC",
"oX c #ADA8A3",
"OX c #B3ABA3",
"+X c #B4AFA9",
"@X c #BEBEA1",
"#X c #B6B1AA",
"$X c #BCB5AE",
"%X c #BFBEAB",
"&X c #AEAFB0",
"*X c #A4A5B1",
"=X c #B1B1B1",
"-X c #BDB7B1",
";X c #BCB9B5",
":X c #BCBCBC",
">X c #C2BEBA",
",X c #CCCB8C",
"<X c #C6C585",
"1X c #D0CF80",
"2X c #D3D287",
"3X c #CAC99B",
"4X c #C5C49B",
"5X c #D0CF93",
"6X c #D8D792",
"7X c #D6D69A",
"8X c #D8D69D",
"9X c #EAE99A",
"0X c #CBCAA1",
"qX c #CACAAC",
"wX c #C4C4AF",
"eX c #D5D4A9",
"rX c #C6C1BD",
"tX c #CDC9BA",
"yX c #D3D3B2",
"uX c #D5D5BD",
"iX c #DADABE",
"pX c #E9E9A7",
"aX c #C5C5C3",
"sX c #CAC6C3",
"dX c #CDCBC5",
"fX c #CDCCCA",
"gX c #D1CFCE",
"hX c #D2CAC1",
"jX c #D6D6C1",
"kX c #D9D8C4",
"lX c #D3D2CE",
"zX c #DBDBCC",
"xX c #D5D4D4",
"cX c #D8D6D4",
"vX c #DCDBD4",
"bX c #DCDCDB",
"nX c #E2E1CB",
"mX c #E0E0D3",
"MX c #E2E1DD",
"NX c #DEDEEA",
"BX c #DDDDE5",
"VX c #E4E4E4",
"CX c #E9E6E6",
"ZX c #E9E8E0",
"AX c #E4E4EB",
"SX c #E8E7E8",
"DX c #E7E8EE",
"FX c #E9E9E9",
"GX c #E6E7F3",
"HX c #E7E8F0",
"JX c #ECECF2",
"KX c #EAEBFB",
"LX c #EFF0F1",
"PX c #F3F3F3",
"IX c #FAFBFC",
"UX c #F3F3F9",
/* pixels */
"SXSXSXSXSXSXpX9XMXFXFXFXFXFXbXO XXPXFXFXFXMXtXhXSXSXSXSXVXFX",
"SXSXFXSXLXtXW T  XLXFXFXFXLX:Xo xXLXFXFXPX.Xs s aXFXFXSXFXFX",
"VXFXFXFXLX%XH F _.KXFXSXFXUXW.% FXFXFXCXPXT.4 4 ;XPXSXFXVXFX",
"FXFXFXFXJXjX+...0XLXSXFXFXIXj 9 PXCXFXFXLX$Xd d dXLXFXSXFXFX",
"FXFXFXZXFXVX[ K zXDXFXFXFXLX* P.PXFXFXFXLXgXt g VXFXSXSXSXSX",
"FXVXFXLXUXFXh 2 vXLXLXFXFXbXO =XPXSXFXPXPXxX= 0 FXUXPXFXFXFX",
"FXVXLX*Xd.w.0.9.w.b.R.FXLX:Xo bXJXFXSXW.U.'.`././.A XXFXFXFX",
"FXFXLX0 : >.,.8.:.< = VXIXE.% JXFXFXVX& - c.c.c.s.X q LXFXFX",
"SXDXVXq.U +.J 1 O.Q 2.zXIXp 9 IXVXFXcXN r v N C d r j.VXSXSX",
"SXDXmXW e.5.%.W ` p.P qXUX* E.IXPXPXrXx f.f v c m A b vXLXSX",
"SXJXiXY ].H.U E u.wXY 5XNX  6 I.:XVX-Xu ;XA t w T.oXs hXDXFX",
"SXLXyXL zXcX3 > ;XFX_ ].JX:XI.p   Q.#Xr SX;X@ & bXlX8 rXLXFX",
"SXGX6X_ NXL.+.;.Z.GXy.A.GXPXUXUX* =X{.V SX^.c.l.|.VXf $XLXSX",
"SXGXK.4.cX8.I / @.iXK.5.AXSXLXxX+ fXj.~.fXC l.l.N xXg.^.LXFX",
"DXFXi.n.zX#.@.L | eX3X~ MXFXLX+X* MXN $X>Xc N C c fX~.j.FXSX",
"FXSX6.8XBX5 ^ ( , aXnX<.mXFXPXP.q VXM cXaX$ i 8 ; VX-XB CXSX",
"DXMXz bXzXJ r.p.F qXGXt.dXLXPX9 I.xXk LX;Xw h.l r xXbXa bXFX",
"FXMXa.SXeX=.3.1.-.1XKXn.kXLXFX* =XxXY.UX}.k.b s.k.rXAXh.VXFX",
"FXFX[.MX@XX.O._ *.N.JXM.MXLXgX+ xXFXT.FX{.n s v b rXbX(.FXFX",
"FXDXuXyXqX@.O.] &.<XkX0XDXPXXX* FXLX-XgX{.b f f c aXrXdXLXCX",
"FXFXDXDXyX&.1.<.*.,XDXDXFXPXl q PXFXFXDX{.b m M v >XFXSXFXZX",
"FXSXSXLXiX! { u.T 4XJXSXFXPX9 P.IXFXFXPX+Xt A f y dXPXSXFXFX",
"FXFXFXFXbX# p f.o :XLXFXFXFX& &XLXFXFXPX:X. P.q # bXFXFXFXFX",
"FXFXFXFXBX<.D.,X~ zXFXFXLXgX+ lXFXFXSXFXlXc +X~.B VXFXVXFXFX",
"VXFXVXFXbX7.C.J.&.uXJXFXPXXX* LXFXFXZXLXdXn |.^.s.bXFXFXFXFX",
"FXFXFXFXbX2.V.F...uXFXFXUXl p PXFXFXFXLXsXx }.T.M bXFXFXVXFX",
"FXFXFXFXMX2.S.2X .kXJXSXPX6 l IXFXFXFXFXfXd |.Y.M VXFXFXFXFX",
"FXFXSXFXAX5.F.eX' MXFXFXDXj + 6 xXLXFXFXbXs rX{.B FXFXFXVXFX",
"FXFXFXFXSX/ M.3XG mXFXFXFXLXfX% cXFXFXFXcXw ;XT.g FXFXFXFXFX",
"VXFXFXFXMXV.G.5XB.jXJXSXFXLX:X9 LXFXFXLXlXj.#X}.!.bXFXFXFXFX"
};
